<?xml version="1.0" encoding="utf-8"?>
<!-- Generator: Adobe Illustrator 19.0.1, SVG Export Plug-In . SVG Version: 6.00 Build 0)  -->
<svg version="1.1" id="Layer_1" xmlns="http://www.w3.org/2000/svg" xmlns:xlink="http://www.w3.org/1999/xlink" x="0px" y="0px"
	 width="91px" height="83px" viewBox="-252 379.9 91 83" style="enable-background:new -252 379.9 91 83;" xml:space="preserve">
<style type="text/css">
	.st0{fill:#37a000;}
	.st1{fill:#222;}
	.st2{fill:#FFFFFF;}
	.st3{fill:#10364C;}
	.st4{fill:#2F3644;}
	.st5{fill:#D5D0BB;}
	.st6{fill:#EDDCC7;}
	.st7{fill:#D75A4A;}
	.st8{fill:#F29C21;}
	.st9{fill:#D6C4B1;}
	.st10{fill:#A34740;}
	.st11{fill:#E18C25;}
	.st12{fill:#5E5E5E;}
</style>
<g id="icon-3">
	<path id="bg3" class="st0" d="M-200.5,383c21.8,0,39.5,17.7,39.5,39.5s-17.7,39.5-39.5,39.5s-39.5-17.7-39.5-39.5
		S-222.3,383-200.5,383z"/>
	<path id="bg-3" class="st1" d="M-237,379.9c8.3,0,15,6.7,15,15c0,8.3-6.7,15-15,15s-15-6.7-15-15C-252,386.6-245.3,379.9-237,379.9
		z"/>
	<path id="_x33_" class="st2" d="M-241.2,393h2c0.1-1.6,0.8-2.5,2.1-2.5c1.2,0,1.9,0.7,1.9,1.8c0,1.6-1.3,1.8-2.6,1.8h-0.2v1.5
		c0.3,0,0.4,0,0.6,0c1.3,0,2.5,0.6,2.5,2.1c0,1.4-0.9,2.2-2.3,2.2c-1.6,0-2.4-0.9-2.4-2.6h-2v0.3c0,2.5,1.7,4.1,4.4,4.1
		c2.6,0,4.5-1.7,4.5-4.1c0-1.5-0.9-2.6-2.3-3c1.1-0.4,1.8-1.3,1.8-2.6c0-2-1.6-3.4-3.9-3.4C-239.6,388.9-241.2,390.4-241.2,393z"/>
</g>
<g>
	<g>
		<polygon class="st3" points="-193.8,403.3 -196.8,403.3 -196.8,405.6 -203.7,405.6 -203.7,403.3 -206.7,403.3 -218.1,403.3 
			-218.1,446 -182.3,446 -182.3,403.3 		"/>
		<rect x="-203.7" y="401.8" class="st4" width="6.9" height="3.8"/>
		<polygon class="st2" points="-191.5,405.6 -191.5,407.9 -209,407.9 -209,405.6 -215.9,405.6 -215.9,443.7 -184.6,443.7 
			-184.6,405.6 		"/>
		<polygon class="st3" points="-196.8,403.3 -196.8,405.6 -203.7,405.6 -203.7,403.3 -209,403.3 -209,407.9 -191.5,407.9 
			-191.5,403.3 		"/>
		<path class="st5" d="M-201.4,414h-9.9c-0.4,0-0.8-0.3-0.8-0.8s0.3-0.8,0.8-0.8h9.9c0.4,0,0.8,0.3,0.8,0.8S-201,414-201.4,414z"/>
		<path class="st5" d="M-201.4,437.6h-9.9c-0.4,0-0.8-0.3-0.8-0.8s0.3-0.8,0.8-0.8h9.9c0.4,0,0.8,0.3,0.8,0.8
			S-201,437.6-201.4,437.6z"/>
		<path class="st5" d="M-189.2,418.6h-22.1c-0.4,0-0.8-0.3-0.8-0.8s0.3-0.8,0.8-0.8h22.1c0.4,0,0.8,0.3,0.8,0.8
			S-188.8,418.6-189.2,418.6z"/>
		<path class="st5" d="M-189.2,427.7h-22.1c-0.4,0-0.8-0.3-0.8-0.8s0.3-0.8,0.8-0.8h22.1c0.4,0,0.8,0.3,0.8,0.8
			S-188.8,427.7-189.2,427.7z"/>
		<path class="st5" d="M-189.2,433.1h-22.1c-0.4,0-0.8-0.3-0.8-0.8c0-0.4,0.3-0.8,0.8-0.8h22.1c0.4,0,0.8,0.3,0.8,0.8
			C-188.4,432.7-188.8,433.1-189.2,433.1z"/>
		<path class="st5" d="M-200.6,423.1h-10.7c-0.4,0-0.8-0.3-0.8-0.8s0.3-0.8,0.8-0.8h10.7c0.4,0,0.8,0.3,0.8,0.8
			S-200.2,423.1-200.6,423.1z"/>
		<path class="st5" d="M-189.2,423.1h-5.3c-0.4,0-0.8-0.3-0.8-0.8s0.3-0.8,0.8-0.8h5.3c0.4,0,0.8,0.3,0.8,0.8
			S-188.8,423.1-189.2,423.1z"/>
		<path class="st5" d="M-197.6,423.1c-0.2,0-0.4-0.1-0.5-0.2s-0.2-0.3-0.2-0.5s0.1-0.4,0.2-0.5c0.3-0.3,0.8-0.3,1.1,0
			c0.1,0.1,0.2,0.3,0.2,0.5s-0.1,0.4-0.2,0.5C-197.2,423.1-197.4,423.1-197.6,423.1z"/>
	</g>
	<g>
		<polygon class="st6" points="-193.9,439.5 -193.9,439.5 -195.4,445.1 -191.9,441.5 		"/>
		<path class="st7" d="M-179.2,428.9l-1-1c-0.6-0.6-1.5-0.6-2.1,0l-2.7,2.7l2,2L-179.2,428.9z"/>
		
			<rect x="-189.9" y="429.9" transform="matrix(0.7071 0.7071 -0.7071 0.7071 253.1896 261.0255)" class="st8" width="2.9" height="12.5"/>
		<polygon class="st9" points="-189.6,443.8 -189.6,443.8 -191.9,441.5 -195.4,445.1 -195.5,445.5 		"/>
		<path class="st10" d="M-180.7,435l2.7-2.7c0.6-0.6,0.6-1.5,0-2.1l-1.2-1.2l-3.8,3.8L-180.7,435z"/>
		
			<rect x="-187.9" y="432" transform="matrix(-0.7071 -0.7071 0.7071 -0.7071 -627.8881 616.3958)" class="st11" width="3.2" height="12.5"/>
		<path class="st12" d="M-196,446.8c-0.2,0-0.4-0.1-0.5-0.2c-0.3-0.3-0.3-0.8,0-1.1l1.7-1.7c0.3-0.3,0.8-0.3,1.1,0s0.3,0.8,0,1.1
			l-1.7,1.7C-195.7,446.7-195.8,446.8-196,446.8z"/>
	</g>
</g>
</svg>
