<?xml version="1.0" encoding="utf-8"?>
<!-- Generator: Adobe Illustrator 19.0.1, SVG Export Plug-In . SVG Version: 6.00 Build 0)  -->
<svg version="1.1" id="Layer_1" xmlns="http://www.w3.org/2000/svg" xmlns:xlink="http://www.w3.org/1999/xlink" x="0px" y="0px"
	 width="90px" height="83px" viewBox="-252 379.9 90 83" style="enable-background:new -252 379.9 90 83;" xml:space="preserve">
<style type="text/css">
	.st0{fill:#37a000;}
	.st1{fill:#222;}
	.st2{fill:#FFFFFF;}
	.st3{fill:#D8D8D8;}
	.st4{fill:#B8BDC1;}
	.st5{fill:#134260;}
</style>
<g id="icon-1">
	<path id="bg1" class="st0" d="M-201.5,383c21.8,0,39.5,17.7,39.5,39.5s-17.7,39.5-39.5,39.5s-39.5-17.7-39.5-39.5
		S-223.3,383-201.5,383z"/>
	<path id="bg-1" class="st1" d="M-237,379.9c8.3,0,15,6.7,15,15c0,8.3-6.7,15-15,15s-15-6.7-15-15C-252,386.6-245.3,379.9-237,379.9
		z"/>
	<path id="_x31_" class="st2" d="M-236.2,388.9h-1.7c-0.4,2.2-2.3,2.4-3.7,2.4v1.5h3.1v8.7h2.2V388.9z"/>
</g>
<g>
	<polygon class="st2" points="-222.7,443.5 -184.2,443.5 -184.2,405 -222.7,405 	"/>
	<polygon class="st3" points="-184.2,408.2 -184.2,443.5 -219.5,443.5 -219.5,446.7 -181,446.7 -181,408.2 	"/>
	<path class="st4" d="M-205.1,413c-1.8,0-3.2-1.4-3.2-3.2V405c0-1.8,1.4-3.2,3.2-3.2c1.8,0,3.2,1.4,3.2,3.2c0,0.4-0.4,0.8-0.8,0.8
		c-0.4,0-0.8-0.4-0.8-0.8c0-0.9-0.7-1.6-1.6-1.6c-0.9,0-1.6,0.7-1.6,1.6v4.8c0,0.9,0.7,1.6,1.6,1.6c0.9,0,1.6-0.7,1.6-1.6
		c0-0.4,0.4-0.8,0.8-0.8c0.4,0,0.8,0.4,0.8,0.8C-201.9,411.6-203.3,413-205.1,413"/>
	<g>
		<path class="st5" d="M-192.2,418.7h-3.2c-0.4,0-0.8-0.4-0.8-0.8c0-0.4,0.4-0.8,0.8-0.8h3.2c0.4,0,0.8,0.4,0.8,0.8
			C-191.4,418.3-191.8,418.7-192.2,418.7"/>
		<path class="st5" d="M-198.6,418.7h-5.6c-0.4,0-0.8-0.4-0.8-0.8c0-0.4,0.4-0.8,0.8-0.8h5.6c0.4,0,0.8,0.4,0.8,0.8
			C-197.8,418.4-198.2,418.7-198.6,418.7"/>
		<path class="st5" d="M-207.5,418.7h-7.2c-0.4,0-0.8-0.4-0.8-0.8c0-0.4,0.4-0.8,0.8-0.8h7.2c0.4,0,0.8,0.4,0.8,0.8
			C-206.7,418.3-207,418.7-207.5,418.7"/>
		<path class="st5" d="M-192.2,423.5h-6.4c-0.4,0-0.8-0.4-0.8-0.8c0-0.4,0.4-0.8,0.8-0.8h6.4c0.4,0,0.8,0.4,0.8,0.8
			C-191.4,423.2-191.8,423.5-192.2,423.5"/>
		<path class="st5" d="M-203.5,423.4h-5.6c-0.4,0-0.8-0.4-0.8-0.8c0-0.4,0.4-0.8,0.8-0.8h5.6c0.4,0,0.8,0.4,0.8,0.8
			C-202.7,423.1-203,423.4-203.5,423.4"/>
		<path class="st5" d="M-212.3,423.4h-2.4c-0.4,0-0.8-0.4-0.8-0.8c0-0.4,0.4-0.8,0.8-0.8h2.4c0.4,0,0.8,0.4,0.8,0.8
			C-211.5,423.1-211.8,423.4-212.3,423.4"/>
		<path class="st5" d="M-192.2,428.3h-2.4c-0.4,0-0.8-0.4-0.8-0.8c0-0.4,0.4-0.8,0.8-0.8h2.4c0.4,0,0.8,0.4,0.8,0.8
			C-191.4,427.9-191.8,428.3-192.2,428.3"/>
		<path class="st5" d="M-197.8,428.3h-8c-0.4,0-0.8-0.4-0.8-0.8c0-0.4,0.4-0.8,0.8-0.8h8c0.4,0,0.8,0.4,0.8,0.8
			C-197,427.9-197.4,428.3-197.8,428.3"/>
		<path class="st5" d="M-210.7,428.3h-4c-0.4,0-0.8-0.4-0.8-0.8c0-0.4,0.4-0.8,0.8-0.8h4c0.4,0,0.8,0.4,0.8,0.8
			C-209.9,427.9-210.2,428.3-210.7,428.3"/>
		<path class="st5" d="M-192.2,433.1h-8.8c-0.4,0-0.8-0.4-0.8-0.8s0.4-0.8,0.8-0.8h8.8c0.4,0,0.8,0.4,0.8,0.8
			C-191.4,432.7-191.8,433.1-192.2,433.1"/>
		<path class="st5" d="M-205.9,433.1h-3.2c-0.4,0-0.8-0.4-0.8-0.8s0.4-0.8,0.8-0.8h3.2c0.4,0,0.8,0.4,0.8,0.8
			C-205.1,432.7-205.4,433.1-205.9,433.1"/>
		<path class="st5" d="M-212.3,433.1h-2.4c-0.4,0-0.8-0.4-0.8-0.8s0.4-0.8,0.8-0.8h2.4c0.4,0,0.8,0.4,0.8,0.8
			C-211.5,432.7-211.8,433.1-212.3,433.1"/>
	</g>
</g>
</svg>
