<?xml version="1.0" encoding="utf-8"?>
<!-- Generator: Adobe Illustrator 19.0.1, SVG Export Plug-In . SVG Version: 6.00 Build 0)  -->
<svg version="1.1" id="Layer_1" xmlns="http://www.w3.org/2000/svg" xmlns:xlink="http://www.w3.org/1999/xlink" x="0px" y="0px"
	 width="91px" height="83px" viewBox="-252 379.9 91 83" style="enable-background:new -252 379.9 91 83;" xml:space="preserve">
<style type="text/css">
	.st0{fill:#37a000;}
	.st1{fill:#222;}
	.st2{fill:#FFFFFF;}
	.st3{fill:#FFFFFF;stroke:#10364C;stroke-width:2;stroke-miterlimit:10;}
	.st4{fill:#EDDCC7;}
	.st5{fill:#D75A4A;}
	.st6{fill:#F29C21;}
	.st7{fill:#D6C4B1;}
	.st8{fill:#A34740;}
	.st9{fill:#E18C25;}
	.st10{fill:#5E5E5E;}
</style>
<g id="icon-2">
	<path id="bg2" class="st0" d="M-200.5,383c21.8,0,39.5,17.7,39.5,39.5s-17.7,39.5-39.5,39.5s-39.5-17.7-39.5-39.5
		S-222.3,383-200.5,383z"/>
	<path id="bg-2" class="st1" d="M-237,379.9c8.3,0,15,6.7,15,15c0,8.3-6.7,15-15,15s-15-6.7-15-15C-252,386.6-245.3,379.9-237,379.9
		z"/>
	<path id="_x32_" class="st2" d="M-233,399.8h-6.1c0.4-1,1.8-1.9,2.7-2.5c1.8-1.2,3.5-2.2,3.5-4.6c0-2.3-1.6-3.8-4.1-3.8
		c-2.6,0-4.2,1.7-4.2,4.4v0.3h2c0-1.5,0.3-3,2.2-3c1.3,0,2,0.8,2,2.1c0,1.7-1.5,2.5-2.8,3.4c-2.1,1.4-3.7,2.6-3.8,5.5h8.6V399.8z"/>
</g>
<g>
	<g>
		<path class="st3" d="M-187,436.7l-7.7-3.9c-1-0.5-1.6-1.5-1.6-2.6v-3c0.2-0.2,0.5-0.6,0.7-0.9c1.1-1.5,1.8-3.1,2.4-4.8
			c1-0.3,1.7-1.2,1.7-2.3v-3.3c0-0.7-0.3-1.3-0.8-1.8v-4.7c0,0,1-7.3-8.9-7.3c-9.8,0-8.9,7.3-8.9,7.3v4.7c-0.5,0.4-0.8,1.1-0.8,1.8
			v3.2c0,0.9,0.4,1.6,1.1,2c0.8,3.5,2.9,6,2.9,6v3c0,1.1-0.6,2.1-1.5,2.6l-7.2,3.9c-2.1,1.1-3.4,3.3-3.4,5.7v2.6h35.6v-2.5
			C-183.4,440.1-184.8,437.8-187,436.7z"/>
	</g>
	<g>
		<polygon class="st4" points="-199.7,439.7 -199.7,439.7 -201.4,445.6 -197.6,441.9 		"/>
		<path class="st5" d="M-184.2,428.5l-1-1c-0.6-0.6-1.6-0.6-2.3,0l-2.9,2.9l2.1,2.1L-184.2,428.5z"/>
		
			<rect x="-195.4" y="429.4" transform="matrix(0.7071 0.7071 -0.7071 0.7071 251.5619 264.8587)" class="st6" width="3" height="13.3"/>
		<polygon class="st7" points="-195.2,444.3 -195.2,444.3 -197.6,441.9 -201.4,445.6 -201.5,446 		"/>
		<path class="st8" d="M-185.8,434.9l2.9-2.9c0.6-0.6,0.6-1.6,0-2.3l-1.3-1.3l-4,4L-185.8,434.9z"/>
		
			<rect x="-193.4" y="431.8" transform="matrix(-0.7071 -0.7071 0.7071 -0.7071 -637.3101 612.8486)" class="st9" width="3.4" height="13.3"/>
		<path class="st10" d="M-202,447.4c-0.2,0-0.4-0.1-0.6-0.2c-0.3-0.3-0.3-0.8,0-1.1l1.8-1.8c0.3-0.3,0.8-0.3,1.1,0s0.3,0.8,0,1.1
			l-1.8,1.8C-201.6,447.3-201.8,447.4-202,447.4z"/>
	</g>
</g>
</svg>
