<?xml version="1.0" encoding="utf-8"?>
<!-- Generator: Adobe Illustrator 19.0.1, SVG Export Plug-In . SVG Version: 6.00 Build 0)  -->
<svg version="1.1" id="Layer_1" xmlns="http://www.w3.org/2000/svg" xmlns:xlink="http://www.w3.org/1999/xlink" x="0px" y="0px"
	 width="94px" height="83px" viewBox="-250 379.9 94 83" style="enable-background:new -250 379.9 94 83;" xml:space="preserve">
<style type="text/css">
	.st0{fill:#37a000;}
	.st1{fill:#222;}
	.st2{fill:#FFFFFF;}
	.st3{fill:#13425F;}
	.st4{fill:#2F3644;}
	.st5{fill:#10364C;}
	.st6{fill:#D5D0BB;}
	.st7{fill:#26B999;}
</style>
<g id="icon-4">
	<path id="bg4" class="st0" d="M-195.5,383c21.8,0,39.5,17.7,39.5,39.5s-17.7,39.5-39.5,39.5s-39.5-17.7-39.5-39.5
		S-217.3,383-195.5,383z"/>
	<path id="bg-4" class="st1" d="M-235,379.9c8.3,0,15,6.7,15,15c0,8.3-6.7,15-15,15s-15-6.7-15-15C-250,386.6-243.3,379.9-235,379.9
		z"/>
	<path id="_x34_" class="st2" d="M-230.6,396.9h-1.6v-8h-1.9l-5.4,7.7v2h5.3l0,3h2v-3h1.6V396.9z M-234.2,396.9h-3.7l3.7-5.5V396.9z
		"/>
</g>
<g>
	<g>
		<polygon class="st3" points="-189.1,402.3 -192.2,402.3 -192.2,404.7 -199.2,404.7 -199.2,402.3 -202.3,402.3 -214,402.3 
			-214,445.9 -177.4,445.9 -177.4,402.3 		"/>
		<rect x="-199.2" y="400.8" class="st4" width="7" height="3.9"/>
		<polygon class="st2" points="-186.8,404.7 -186.8,407 -204.7,407 -204.7,404.7 -211.7,404.7 -211.7,443.6 -179.8,443.6 
			-179.8,404.7 		"/>
		<polygon class="st5" points="-192.2,402.3 -192.2,404.7 -199.2,404.7 -199.2,402.3 -204.7,402.3 -204.7,407 -186.8,407 
			-186.8,402.3 		"/>
		<path class="st6" d="M-196.9,413.2H-207c-0.4,0-0.8-0.3-0.8-0.8s0.3-0.8,0.8-0.8h10.1c0.4,0,0.8,0.3,0.8,0.8
			S-196.5,413.2-196.9,413.2z"/>
		<path class="st6" d="M-196.9,437.3H-207c-0.4,0-0.8-0.3-0.8-0.8s0.3-0.8,0.8-0.8h10.1c0.4,0,0.8,0.3,0.8,0.8
			S-196.5,437.3-196.9,437.3z"/>
		<path class="st6" d="M-184.4,417.9H-207c-0.4,0-0.8-0.3-0.8-0.8s0.3-0.8,0.8-0.8h22.6c0.4,0,0.8,0.3,0.8,0.8
			S-184,417.9-184.4,417.9z"/>
		<path class="st6" d="M-184.4,427.2H-207c-0.4,0-0.8-0.3-0.8-0.8s0.3-0.8,0.8-0.8h22.6c0.4,0,0.8,0.3,0.8,0.8
			S-184,427.2-184.4,427.2z"/>
		<path class="st6" d="M-184.4,432.7H-207c-0.4,0-0.8-0.3-0.8-0.8s0.3-0.8,0.8-0.8h22.6c0.4,0,0.8,0.3,0.8,0.8
			S-184,432.7-184.4,432.7z"/>
		<path class="st6" d="M-196.1,422.6H-207c-0.4,0-0.8-0.3-0.8-0.8s0.3-0.8,0.8-0.8h10.9c0.4,0,0.8,0.3,0.8,0.8
			S-195.7,422.6-196.1,422.6z"/>
		<path class="st6" d="M-184.4,422.6h-5.4c-0.4,0-0.8-0.3-0.8-0.8s0.3-0.8,0.8-0.8h5.4c0.4,0,0.8,0.3,0.8,0.8
			S-184,422.6-184.4,422.6z"/>
		<path class="st6" d="M-193,422.6c-0.2,0-0.4-0.1-0.6-0.2c-0.1-0.1-0.2-0.4-0.2-0.6s0.1-0.4,0.2-0.6c0.3-0.3,0.8-0.3,1.1,0
			c0.1,0.1,0.2,0.3,0.2,0.6c0,0.2-0.1,0.4-0.2,0.6C-192.6,422.5-192.8,422.6-193,422.6z"/>
	</g>
	<g>
		<circle class="st7" cx="-181.3" cy="436.6" r="9.3"/>
		<path class="st2" d="M-176.2,432c-0.4-0.2-0.8-0.2-1.1,0.2l-4.4,6.3l-3.1-2.5c-0.3-0.3-0.8-0.2-1.1,0.1c-0.3,0.3-0.2,0.8,0.1,1.1
			l3.7,3.1c0.1,0.1,0.3,0.2,0.5,0.2h0.1c0.2,0,0.4-0.1,0.5-0.3l4.8-6.9C-175.8,432.8-175.9,432.3-176.2,432z"/>
	</g>
</g>
</svg>
